<?xml version="1.0" encoding="utf-8"?>
<!-- Designed by Vexels.com - 2016 All Rights Reserved - https://vexels.com/terms-and-conditions/  -->

<svg version="1.1" id="Capa_1" xmlns="http://www.w3.org/2000/svg" xmlns:xlink="http://www.w3.org/1999/xlink" x="0px" y="0px"
	 width="1200px" height="1200px" viewBox="0 0 1200 1200" enable-background="new 0 0 1200 1200" xml:space="preserve">
<g>
	<g>
		<path fill="#ffffff" d="M367.119,1023.589c0,0-17.481,13.467-24.883,17.496c-7.377,4.033-68.566,30.914-61.84,44.365
			c0,0-2.021,13.445,32.276,9.406c0,0,47.058-4.717,54.446-4.039c7.409,0.684,46.392,6.066,49.747-1.328
			c3.357-7.391,4.689-41.703,0.664-45.049c-4.022-3.355,0.684-10.756,1.359-15.445c0.667-4.723,7.389-61.195,15.449-71.951
			c8.085-10.76,36.968-92.768,22.85-110.908c0,0,17.494-20.184,14.118-27.553c0,0,13.455-18.842,18.141-21.535
			c0,0,27.589-24.855,26.226-30.91l7.395,0.65c0,0,59.163-10.063,82.695-53.096c0,0-6.724,49.766-16.13,61.189
			c0,0-2.693,7.385-0.651,8.064c1.983,0.668,1.983,0.668,1.983,0.668s-65.194,90.752-32.934,129.08c0,0,14.796,35.631,60.523,14.107
			c0,0,58.481-30.264,66.543-55.795c0,0,7.403,60.512,43.016,45.727c0,0,39.675-31.607,31.611-71.277c0,0-9.407-75.949-4.059-86.723
			c0,0,6.066-20.85-4.685-18.141c0,0,18.154-76.641,15.463-84.705c0,0,32.941-79.348,24.883-99.502
			c-8.076-20.154,4.018-93.454-14.813-135.135l1.348-40.328c0,0,25.573,7.401,32.944,7.401c0,0,13.436,6.038,15.449,11.438
			c0,0,15.479,13.435,18.818,13.435c0,0,3.375,80.687-18.124,116.981c0,0-6.057,38.313-2.695,45.711c0,0-4.728,29.566,4.689,47.729
			c0,0,20.85,57.133,32.953,35.627c0,0,26.878,4.707,19.485-4.039c0,0,22.853,4.719,14.79-5.383
			c-8.064-10.064-5.373-8.064-5.373-8.064s15.463,4.039,8.734-5.379c0,0-12.074-19.484-14.117-27.568c0,0-6.04-47.053-14.118-54.441
			c0,0-2.012-19.502,4.7-26.891c0,0,54.461-138.496,42.367-164.702v-7.388c0,0-43.695-49.098-89.422-59.163
			c0,0-28.219-12.782-40.331-19.501c0,0-36.295-41.668-74.626-50.403c0,0-47.058-24.208-73.251-22.21l-15.492-8.05
			c0,0,21.534-46.391,4.716-44.367c0,0,22.174-51.76,2.701-61.853c-19.513-10.09-9.419-5.37-6.072-5.37
			c3.371,0-4.689-8.085-8.729-8.085c-4.029,0-14.118-1.327-10.757-1.997c3.354-0.683,3.354-6.065-5.368-6.732
			c-8.736-0.678-22.168-1.346-17.495-3.374c4.733-2,1.354-4.706-0.656-4.028c-2.023,0.667-12.779-3.374-14.795-2.69
			c-2.034,0.664-5.384,0-7.402,0.664c-2.007,0.679-6.716-3.349-8.731-5.354c-2.007-2.029-8.051-3.379-10.087-2.699
			c-2.016,0.67-7.371,0.67-10.092,5.389c-2.679,4.69-2.679,8.053-7.399,6.719c-4.681-1.362-2.019-6.052-4.681-1.362
			c-2.706,4.708-5.415,8.745-2.706,11.438c2.706,2.696,1.346,4.023-0.662,4.023c-2.013,0-6.041,0.683-4.706,4.045
			c1.33,3.356-4.711,1.343-2.695,5.366c2.023,4.043,3.365,4.043-0.67,6.053c-4.021,2.016-14.796,0-10.066,3.364
			c4.7,3.374,6.046,6.045,6.046,6.045l-3.369,4.029l0.66,4.042c0,0,2.026,2.693,0,3.357c-2.008,0.696-2.008,4.042-2.008,4.042
			s4.037,3.374,2.008,4.706c-2.008,1.361,0.683,4.69,1.36,6.717c0.666,2.026,3.361,20.851,3.361,20.851s-8.062-4.043-8.062,7.402
			c0,11.422,10.066,38.296,18.803,41.005c0,0,3.377,16.128,4.706,18.808c0,0-67.224,28.899-66.546,96.818
			c0,0-3.371,11.417,1.33,16.12c0,0,4.053,13.452,2.045,22.864c-2.045,9.411-22.203,73.28-23.552,78.636
			c-1.343,5.404-1.343,5.404-1.343,5.404s-31.611,39.644-47.056,108.898c0,0-35.633,41.674-41.677,43.034l-2.693,8.067
			c0,0-8.061,6.061-8.731,8.063c-0.675,2.012-1.357,7.387-0.675,9.412c0.675,2.012-1.355,51.082,4.7,55.123
			c0,0,11.425,0,8.734-12.77c0,0,20.832,7.4,3.377-16.129c0,0,10.736-9.426,4.054-14.119c0,0,17.463-14.115,20.153-12.789
			c2.668,1.334,2.668,1.334,2.668,1.334s-4.712,34.965,16.809,5.4l4.054-16.141c0,0,20.831-10.079,12.757-28.903
			c-8.051-18.839,0-2.024,0-2.024s91.42-86.035,90.759-127.721l12.089,1.346c0,0,2.693-28.901-1.33-32.947
			c0,0,6.067-36.299,8.745-36.299c0,0,5.373,13.441,21.504,19.488c16.128,6.052,2.695,8.082,6.716,15.465
			c0,0,17.468,4.042,12.785,18.807c-4.719,14.813,5.359,36.998-13.453,51.783c-18.818,14.782-20.847,49.748-20.163,51.746
			c0.661,2.045,4.022,4.721,4.022,4.721s-5.363,5.389-7.398,6.736c-2.019,1.316-28.211,30.895-31.587,46.373
			c-3.371,15.465-22.842,13.436-34.264,60.5l-26.228,51.1l3.36,6.045c0,0-14.812,30.248-14.812,43.684
			c0,13.445-10.739,20.189-14.097,23.545c-3.365,3.361-13.455,18.814-14.137,35.623c-0.653,16.811-16.809,18.156-20.16,66.561
			l-5.384,10.082c0,0-1.324,73.947,0,85.383C369.145,985.962,372.486,1017.552,367.119,1023.589z"/>
		<path fill="#ffffff" d="M642.759,1076.039c0,40.848,33.099,73.961,73.932,73.961c40.847,0,73.961-33.113,73.961-73.961
			c0-40.854-33.114-73.945-73.961-73.945C675.857,1002.093,642.759,1035.185,642.759,1076.039z"/>
	</g>
</g>
</svg>
